<?xml version="1.0" encoding="UTF-8" standalone="no"?>
<svg width="693px" height="557px" viewBox="0 0 693 557" version="1.1" xmlns="http://www.w3.org/2000/svg" xmlns:xlink="http://www.w3.org/1999/xlink">
    <!-- Generator: Sketch 3.6.1 (26313) - http://www.bohemiancoding.com/sketch -->
    <title>cps-theme-simbol</title>
    <desc>Created with Sketch.</desc>
    <defs></defs>
    <g id="Page-1" stroke="none" stroke-width="1" fill="none" fill-rule="evenodd">
        <g id="cps-theme-simbol">
            <g id="Group-Copy" transform="translate(38.000000, 252.000000)">
                <g id="human" fill="#D8D8D8">
                    <circle id="Oval-1" cx="68" cy="68" r="68"></circle>
                    <path d="M0,286 L135.999996,286 C135.999996,286 136,224.643528 136,204 C136,166.444637 105.555363,136 68,136 C30.444637,136 0,166.444637 0,204 L0,286 Z M94.6674371,210.5083 C105.987064,204.6523 117.094805,191.576517 115.121604,181.219848 C113.148402,170.863178 101.265355,169.673066 94.6674371,181.219848 C88.0734637,169.673066 75.8445819,170.863178 74.1714392,181.219848 C72.4982965,191.576517 83.34781,204.6523 94.6674371,210.5083 Z" id="Combined-Shape"></path>
                </g>
                <text id="人間" font-family="HiraKakuPro-W3, Hiragino Kaku Gothic Pro" font-size="72" font-weight="300" fill="#00060A">
                    <tspan x="59" y="271">人間</tspan>
                </text>
            </g>
            <g id="Group-Copy-2" transform="translate(411.000000, 273.000000)">
                <g id="city" fill="#D8D8D8">
                    <path d="M0,0 L86,62 L86,265 L0,265 L0,0 Z" id="Rectangle-1"></path>
                    <path d="M95,87 L150,157 L150,265 L95,265 L95,87 Z" id="Rectangle-1-Copy" transform="translate(122.500000, 176.000000) scale(-1, 1) translate(-122.500000, -176.000000) "></path>
                    <path d="M205.259232,264.827655 C205.259232,264.827655 261.272177,242.751392 252.315277,222.670628 C243.358378,202.589863 149.690484,177.44276 149.690484,177.44276 L149.044157,184.265065 C149.044157,184.265065 229.86391,204.563966 235.560766,222.670628 C241.257622,240.777289 174.417611,264.911048 174.417611,264.911048 L205.259232,264.827655 Z" id="Path-1-Copy"></path>
                </g>
                <text id="都市" font-family="HiraKakuPro-W3, Hiragino Kaku Gothic Pro" font-size="72" font-weight="300" fill="#00060A">
                    <tspan x="102" y="88">都市</tspan>
                </text>
            </g>
            <g id="Group" transform="translate(164.000000, 15.000000)">
                <g id="disaster" fill="#D8D8D8">
                    <path d="M210,90.5 L210,0 L91,0 L91,90.5 L0.5,90.5 L0.5,209.5 L91,209.5 L91,300 L210,300 L210,209.5 L300.5,209.5 L300.5,90.5 L210,90.5 Z" id="Combined-Shape"></path>
                </g>
                <text id="防災" font-family="HiraKakuPro-W3, Hiragino Kaku Gothic Pro" font-size="72" font-weight="300" fill="#00060A">
                    <tspan x="78" y="177">防災</tspan>
                </text>
            </g>
        </g>
    </g>
</svg>